<?xml version="1.0" standalone="no"?>
<!DOCTYPE svg PUBLIC "-//W3C//DTD SVG 20010904//EN"
 "http://www.w3.org/TR/2001/REC-SVG-20010904/DTD/svg10.dtd">
<svg version="1.0" xmlns="http://www.w3.org/2000/svg"
 width="500.000000pt" height="500.000000pt" viewBox="0 0 500.000000 500.000000"
 preserveAspectRatio="xMidYMid meet">

<g transform="translate(0.000000,500.000000) scale(0.100000,-0.100000)"
fill="#000000" stroke="none">
<path d="M0 2500 l0 -2500 2500 0 2500 0 0 2500 0 2500 -2500 0 -2500 0 0
-2500z m2062 1511 c118 -38 198 -78 198 -100 0 -60 -26 -64 -136 -21 -210 84
-372 80 -447 -9 -157 -187 95 -725 539 -1151 194 -186 373 -315 568 -410 252
-123 442 -138 529 -41 79 87 76 233 -9 442 l-37 91 21 21 c36 36 65 12 102
-85 55 -142 73 -231 67 -328 -6 -98 -23 -144 -74 -201 -122 -135 -353 -124
-665 32 -208 104 -390 241 -604 454 -338 337 -558 716 -572 986 -6 126 12 189
73 257 69 76 120 93 265 88 80 -3 135 -10 182 -25z m528 -232 c161 -26 277
-86 400 -209 144 -143 211 -304 213 -510 1 -128 -16 -201 -78 -326 -54 -112
-145 -213 -253 -284 -78 -51 -120 -62 -142 -36 -25 31 -7 59 59 96 76 41 182
145 229 223 18 30 45 88 60 129 23 64 27 89 27 193 0 97 -4 134 -22 190 -66
208 -242 376 -449 429 -72 19 -219 21 -296 5 -171 -36 -348 -172 -429 -330
-10 -20 -26 -39 -35 -43 -21 -8 -64 19 -64 40 0 38 70 144 145 220 175 177
398 252 635 213z m-750 -859 c10 -5 28 -38 40 -74 29 -89 83 -168 168 -248 64
-60 134 -102 245 -147 24 -9 28 -16 25 -43 -5 -47 -28 -56 -90 -35 -175 61
-334 209 -419 392 -39 83 -46 126 -24 148 19 20 29 21 55 7z m577 -1048 c29
-16 53 -51 53 -79 0 -20 -5 -23 -40 -23 -22 0 -40 4 -40 9 0 37 -84 55 -114
26 -26 -27 -7 -44 79 -70 123 -37 156 -85 120 -171 -28 -66 -145 -94 -232 -55
-44 20 -67 48 -78 94 -7 26 -6 27 39 27 33 0 46 -4 46 -14 0 -22 49 -56 80
-56 15 0 38 9 51 19 34 28 17 51 -52 74 -130 42 -151 60 -151 123 0 40 22 78
54 95 51 28 135 28 185 1z m1434 -9 c32 -18 79 -75 79 -94 0 -5 -20 -9 -45 -9
-34 0 -50 6 -69 25 -32 32 -101 35 -139 5 -57 -45 -57 -145 0 -189 38 -31 106
-29 139 4 19 19 35 25 69 25 25 0 45 -4 45 -9 0 -4 -10 -23 -23 -42 -33 -49
-98 -82 -161 -82 -116 0 -197 82 -197 199 0 155 167 247 302 167z m-2504 16
c35 -13 80 -55 99 -91 l15 -28 -47 0 c-35 0 -53 6 -76 25 -45 38 -100 35 -144
-9 -29 -29 -34 -41 -34 -81 0 -40 5 -52 34 -81 44 -44 99 -47 144 -9 23 19 41
25 76 25 l47 0 -15 -29 c-20 -38 -80 -89 -114 -97 -15 -3 -33 -7 -40 -10 -29
-9 -115 19 -149 49 -111 98 -90 263 42 331 35 18 121 21 162 5z m551 -8 c131
-67 150 -236 37 -329 -159 -130 -392 47 -306 233 46 101 172 146 269 96z m931
-78 c16 -54 33 -110 37 -126 11 -46 20 -39 38 26 9 34 26 93 38 130 l20 68 51
-3 51 -3 38 -185 c20 -102 37 -188 38 -192 0 -5 -22 -8 -49 -8 l-48 0 -18 113
c-10 61 -21 118 -25 125 -4 8 -22 -42 -41 -113 l-34 -126 -44 3 -44 3 -37 130
-37 130 -11 -65 c-6 -36 -16 -95 -23 -132 l-11 -68 -48 0 c-41 0 -48 3 -44 18
2 9 17 89 34 177 42 214 33 195 90 195 l49 0 30 -97z m551 -98 l0 -195 -45 0
-45 0 0 195 0 195 45 0 45 0 0 -195z m-920 -515 c0 -100 -2 -120 -15 -120 -12
0 -15 20 -15 120 0 100 3 120 15 120 13 0 15 -20 15 -120z m-590 85 c0 -11
-12 -15 -50 -15 l-50 0 0 -35 0 -35 50 0 c28 0 50 -4 50 -10 0 -5 -22 -10 -50
-10 l-50 0 0 -40 0 -40 50 0 c28 0 50 -4 50 -10 0 -6 -28 -10 -65 -10 l-65 0
0 103 c0 57 3 107 7 110 3 4 33 7 65 7 45 0 58 -3 58 -15z m145 -92 l17 -26
17 26 c8 15 22 27 29 27 10 0 8 -10 -8 -35 l-22 -35 22 -35 c16 -27 18 -35 8
-35 -8 0 -21 12 -29 26 l-13 26 -22 -27 c-12 -15 -27 -26 -34 -23 -8 2 -5 12
9 30 23 28 27 53 11 63 -5 3 -15 15 -20 26 -17 30 14 24 35 -8z m195 15 c0 -9
3 -9 12 0 21 21 75 15 92 -10 36 -50 8 -118 -48 -118 -17 0 -37 5 -44 12 -9 9
-12 0 -12 -40 0 -29 -4 -52 -10 -52 -6 0 -10 43 -10 110 0 67 4 110 10 110 6
0 10 -5 10 -12z m470 -8 c11 -11 20 -33 20 -50 0 -17 -9 -39 -20 -50 -44 -44
-120 -11 -120 52 0 17 7 40 17 50 22 24 77 24 103 -2z m200 4 c0 -8 -5 -12
-10 -9 -22 13 -40 -17 -40 -66 0 -27 -4 -49 -10 -49 -6 0 -10 29 -10 68 l0 69
35 1 c25 1 35 -3 35 -14z m202 -1 c9 -10 19 -28 22 -40 7 -22 5 -23 -53 -23
-62 0 -73 -7 -45 -31 12 -10 22 -10 48 -1 46 17 55 14 27 -8 -70 -59 -165 36
-101 100 25 25 81 27 102 3z m198 1 c0 -8 -5 -12 -10 -9 -22 13 -40 -17 -40
-66 0 -27 -4 -49 -10 -49 -6 0 -10 29 -10 68 l0 69 35 1 c25 1 35 -3 35 -14z"/>
<path d="M1759 1795 c-64 -35 -79 -121 -31 -173 50 -54 111 -54 163 -2 52 51
36 140 -31 175 -36 19 -67 19 -101 0z"/>
<path d="M2227 1162 c-22 -24 -21 -45 1 -65 24 -22 45 -21 65 1 22 24 21 45
-1 65 -24 22 -45 21 -65 -1z"/>
<path d="M2596 1164 c-9 -8 -16 -23 -16 -33 0 -21 30 -51 52 -51 19 0 48 32
48 53 0 21 -27 47 -50 47 -10 0 -26 -7 -34 -16z"/>
<path d="M3002 1168 c-21 -21 -13 -28 33 -28 47 0 58 12 26 30 -26 13 -44 13
-59 -2z"/>
</g>
</svg>
